<svg width="50" height="60" viewBox="0 0 50 60" fill="none" xmlns="http://www.w3.org/2000/svg">
<path d="M40.7973 10.0846C40.7981 14.3966 39.9689 18.6665 38.3573 22.6505C36.7456 26.6345 34.383 30.2545 31.4044 33.3038C28.4257 36.3531 24.8894 38.772 20.9973 40.4223C17.1051 42.0726 12.9335 42.922 8.72072 42.922C8.17914 42.922 7.63816 42.9108 7.10204 42.8755C6.92009 42.8699 6.73815 42.8581 6.55621 42.8463C5.04105 41.1567 3.75583 39.2653 2.73538 37.2236L2.72932 37.218C2.72932 37.2124 2.72932 37.2124 2.72386 37.2006V37.1944C2.72166 37.1841 2.71777 37.1742 2.71233 37.1652H2.70688C2.69597 37.154 2.68804 37.1401 2.68384 37.1249C2.26498 36.2754 1.89224 35.403 1.56731 34.5115V34.4997C-0.101218 29.9076 -0.445235 24.9214 0.576222 20.1348C1.59768 15.3482 3.94158 10.963 7.32886 7.50108C8.83971 5.94529 10.5428 4.59824 12.3948 3.49417C12.4165 3.47705 12.4394 3.46149 12.4633 3.44762V3.44141H12.4687C12.4718 3.43823 12.4759 3.43626 12.4803 3.43582L12.4863 3.42961C14.5446 2.20741 16.7654 1.29783 19.0793 0.729375L19.0848 0.723788C20.3426 0.407472 21.6231 0.194908 22.9141 0.0881445H22.9426L23.3065 0.0583511C23.8705 0.0180027 24.4345 0 24.9986 0C30.6173 0.00797464 36.0711 1.94474 40.4874 5.50042C40.6945 7.01926 40.798 8.55107 40.7973 10.0846Z" fill="white"/>
<path d="M49.9999 25.5938C50.0043 28.9537 49.3597 32.2814 48.103 35.3854C46.8463 38.4895 45.0024 41.3085 42.6773 43.6804L27.9581 58.7459C27.2294 59.4943 26.2551 59.9391 25.2242 59.9941C24.1932 60.049 23.1792 59.7101 22.3785 59.0432H22.373L22.367 59.0376C22.254 58.9482 22.1474 58.8508 22.048 58.7459L11.2891 47.7339C19.7751 47.4853 27.973 44.528 34.7362 39.2758C41.4993 34.0235 46.4893 26.7389 49.0083 18.4409C49.0087 18.4455 49.0109 18.4497 49.0143 18.4527C49.6676 20.7742 49.9994 23.1779 49.9999 25.5938Z" fill="white"/>
<g style="mix-blend-mode:screen" opacity="0.4">
<g style="mix-blend-mode:screen" opacity="0.4">
<path d="M19.0802 0.729492C19.0456 0.746873 18.9037 0.822604 18.6556 0.962892C18.3767 1.12056 17.9667 1.32416 17.4651 1.62212C17.214 1.76799 16.9351 1.92505 16.633 2.1001C16.3425 2.29873 16.0266 2.48495 15.6869 2.70097C15.0198 3.13239 14.292 3.63209 13.5218 4.21187C13.1397 4.49741 12.7583 4.81833 12.3531 5.13305C11.9717 5.47694 11.5556 5.80407 11.1626 6.17714C10.3314 6.93685 9.54005 7.74096 8.7919 8.58623C8.00051 9.48109 7.26206 10.4236 6.58069 11.4088C6.2168 11.893 5.91962 12.4355 5.57757 12.9426C5.28707 13.4622 4.99111 13.9172 4.68302 14.5566C4.10575 15.6415 3.6069 16.7683 3.19048 17.9279C2.97397 18.494 2.80294 19.0769 2.60887 19.6486C2.44936 20.2321 2.27834 20.8031 2.1528 21.3748C1.87951 22.4828 1.67212 23.6068 1.53176 24.7405C1.4978 25.0086 1.46364 25.2777 1.42927 25.5475C1.40622 25.8156 1.38338 26.078 1.36074 26.3346C1.30009 26.8535 1.30373 27.3551 1.26977 27.8455C1.2358 28.3358 1.25279 28.7959 1.2358 29.2447C1.24672 29.6997 1.25279 30.1254 1.25824 30.5283C1.30373 31.3353 1.31889 32.0504 1.38378 32.6277C1.42927 33.2168 1.48628 33.6954 1.52024 34.0163C1.54329 34.2901 1.56027 34.4508 1.56633 34.4998C-0.102196 29.9077 -0.446211 24.9215 0.575246 20.1349C1.5967 15.3484 3.9406 10.9631 7.32787 7.50123C8.83878 5.9454 10.5418 4.59836 12.3938 3.49428C12.4155 3.47716 12.4384 3.4616 12.4623 3.44773V3.44152H12.4678C12.4708 3.43834 12.4749 3.43637 12.4793 3.43594L12.4853 3.42973C14.5441 2.20736 16.7657 1.29777 19.0802 0.729492Z" fill="white"/>
</g>
</g>
<g style="mix-blend-mode:multiply" opacity="0.3">
<g style="mix-blend-mode:multiply" opacity="0.3">
<path d="M40.7968 10.0844C40.7976 14.3964 39.9685 18.6663 38.3568 22.6503C36.7452 26.6342 34.3826 30.2543 31.4039 33.3036C28.4253 36.3529 24.8889 38.7718 20.9968 40.4221C17.1047 42.0724 12.9331 42.9218 8.72025 42.9218C8.17867 42.9218 7.63769 42.9106 7.10156 42.8753L8.82274 42.6536C9.40375 42.5369 9.98536 42.4438 10.5609 42.3389C11.1365 42.2222 11.7132 42.1639 12.276 42.0062L13.9511 41.5574C15.0584 41.2631 16.1486 40.9047 17.2164 40.4841C17.4844 40.3792 17.758 40.3091 18.02 40.1868L18.795 39.8249C19.3081 39.5859 19.826 39.3469 20.3391 39.1191C20.8522 38.8913 21.3307 38.5648 21.8268 38.2966C22.3168 38.0167 22.8123 37.7547 23.2969 37.4686L24.6876 36.5002C25.1611 36.2011 25.6158 35.8719 26.0491 35.5145C26.4821 35.1532 26.9097 34.7913 27.3488 34.4412C27.5653 34.2606 27.7873 34.0917 27.9983 33.9049L28.5963 33.3102C28.9899 32.9135 29.3944 32.5225 29.7989 32.1376C30.2035 31.7527 30.5395 31.2977 30.9155 30.8837L32.0071 29.6062L32.9878 28.2356C33.6464 27.327 34.2539 26.3807 34.8072 25.4013C34.9443 25.1617 35.1038 24.9289 35.2318 24.6775L35.5908 23.9134L36.3374 22.3969C36.5994 21.8953 36.7528 21.3472 36.9639 20.8283L37.5794 19.2416L38.041 17.6085L38.2805 16.786C38.369 16.52 38.4358 16.247 38.4801 15.9697L38.7991 14.3365L38.9701 13.5202C39.0307 13.2459 39.038 12.9249 39.078 12.6338L39.26 10.8337L39.3509 10.0112L39.3964 9.14833C39.4365 8.10982 39.431 7.07194 39.3849 6.02783C38.9179 5.602 38.4334 5.18176 37.9379 4.78634C37.2938 4.27361 36.6273 3.77763 35.9316 3.32262C35.2421 2.85582 34.5301 2.4182 33.789 2.01596C33.4129 1.82353 33.043 1.6193 32.6609 1.43308L31.5438 0.902344C34.8007 1.79309 37.844 3.35933 40.4851 5.50392C40.6926 7.02147 40.7968 8.55204 40.7968 10.0844Z" fill="white"/>
</g>
</g>
<g style="mix-blend-mode:screen" opacity="0.4">
<g style="mix-blend-mode:screen" opacity="0.4">
<path d="M41.6118 32.4995C41.2758 33.1761 40.9168 33.8465 40.5292 34.5058C40.1247 35.1414 39.7026 35.777 39.2641 36.4015C38.8026 36.9962 38.335 37.6027 37.8395 38.1799C37.3264 38.7461 36.8134 39.3116 36.2778 39.856C35.7193 40.3693 35.1783 40.9112 34.5967 41.4016C34.0042 41.8858 33.4171 42.3818 32.8021 42.8293C32.175 43.267 31.554 43.7157 30.9045 44.1186C30.2489 44.5091 29.6048 44.9256 28.9267 45.2732C28.2487 45.6208 27.5707 45.9846 26.8696 46.2881C26.163 46.5737 25.468 46.9089 24.7499 47.1572C24.0222 47.3961 23.3083 47.6643 22.5733 47.8747C21.8376 48.061 21.1026 48.277 20.3621 48.4334C19.6101 48.5675 18.8635 48.7252 18.1181 48.8356C17.36 48.917 16.608 49.0107 15.856 49.0746C15.2173 49.0926 14.5824 49.1212 13.9468 49.133C14.1518 49.4192 14.3628 49.7047 14.5678 49.9909C14.9553 50.5328 15.3259 51.0871 15.6965 51.647C16.0725 52.1951 16.4315 52.7643 16.779 53.3503L11.291 47.7332C17.1173 47.5715 22.8413 46.1272 28.0734 43.4984C33.3055 40.8698 37.923 37.1183 41.6118 32.4995Z" fill="white"/>
</g>
</g>
<g style="mix-blend-mode:multiply" opacity="0.3">
<g style="mix-blend-mode:multiply" opacity="0.3">
<path d="M50.0003 25.594C50.0048 28.954 49.3601 32.2817 48.1035 35.3857C46.8468 38.4898 45.0028 41.3088 42.6777 43.6807L27.9585 58.7461C27.2298 59.4946 26.2556 59.9394 25.2246 59.9943C24.1937 60.0493 23.1796 59.7104 22.3789 59.0435C22.3959 59.0497 22.4359 59.0727 22.5099 59.1056C22.6425 59.1755 22.7797 59.2359 22.9205 59.2862C23.4282 59.4814 23.9679 59.5743 24.5101 59.5599C25.2819 59.5289 26.0258 59.2561 26.6412 58.7784C26.7213 58.7089 26.8013 58.6388 26.8838 58.5686C26.9445 58.4985 27.0154 58.4289 27.0779 58.3588L27.2143 58.2011L27.3168 58.077L27.3344 58.0596L27.3229 58.0652L27.3399 58.0478C27.4199 57.9429 27.4994 57.8318 27.5825 57.7213C27.9464 57.2663 28.329 56.7821 28.722 56.2805C30.3292 54.2799 32.2499 51.9937 34.3696 49.6138C35.4297 48.4238 36.5347 47.2053 37.6803 45.9861C38.8144 44.7614 39.9995 43.5422 41.1736 42.3237C42.2719 41.214 43.273 40.0078 44.1654 38.7191C45.0272 37.4678 45.7857 36.1451 46.433 34.7649C47.04 33.4572 47.5487 32.104 47.9546 30.717C48.3208 29.462 48.6064 28.1839 48.8098 26.8908C48.8607 26.5804 48.8892 26.2607 48.9311 25.9597C48.948 25.8144 48.9711 25.6685 48.9881 25.5282C49.005 25.3879 49.0166 25.2427 49.0335 25.1024C49.0906 24.5369 49.1191 23.9944 49.1421 23.481C49.1815 22.4605 49.1876 21.5567 49.1591 20.8118C49.1191 20.0706 49.0984 19.4704 49.0566 19.0675C49.0147 18.6647 49.005 18.4468 49.005 18.4468C49.0056 18.4514 49.0078 18.4556 49.0111 18.4586C49.6652 20.778 49.9981 23.18 50.0003 25.594Z" fill="white"/>
</g>
</g>
<g style="mix-blend-mode:screen" opacity="0.16">
<g style="mix-blend-mode:screen" opacity="0.16">
<path d="M37.1882 7.84186C10.667 10.1976 8.32961 38.01 8.23803 39.2584V39.3012C8.1883 39.2391 8.13917 39.177 8.09672 39.115C8.03607 39.0423 7.99786 38.9846 7.96936 38.9486C7.96269 38.9412 7.94813 38.9269 7.94813 38.9126C4.68664 34.5436 3.14542 29.0812 3.6292 23.6052C4.11298 18.1292 6.58653 13.0384 10.5608 9.33909C11.0551 8.87664 11.5706 8.43591 12.1073 8.02373C12.5167 7.70591 15.8499 5.69655 16.292 5.49419C17.0332 5.15887 17.7923 4.86686 18.5657 4.61955C23.7225 2.98966 29.2873 3.38129 34.1776 5.71827C34.9497 6.08823 37.1172 6.92378 37.1882 7.84186Z" fill="white"/>
</g>
</g>
</svg>
