<svg width="23" height="22" viewBox="0 0 23 22" fill="none" xmlns="http://www.w3.org/2000/svg">
<path d="M11.0086 5.8041C7.88538 5.8041 5.36618 8.20879 5.36618 11.19C5.36618 14.1713 7.88538 16.576 11.0086 16.576C14.1318 16.576 16.651 14.1713 16.651 11.19C16.651 8.20879 14.1318 5.8041 11.0086 5.8041ZM11.0086 14.6916C8.99029 14.6916 7.34029 13.1213 7.34029 11.19C7.34029 9.25879 8.98538 7.68848 11.0086 7.68848C13.0318 7.68848 14.6769 9.25879 14.6769 11.19C14.6769 13.1213 13.0269 14.6916 11.0086 14.6916ZM18.1979 5.58379C18.1979 6.28223 17.6086 6.84004 16.8818 6.84004C16.1501 6.84004 15.5657 6.27754 15.5657 5.58379C15.5657 4.89004 16.155 4.32754 16.8818 4.32754C17.6086 4.32754 18.1979 4.89004 18.1979 5.58379ZM21.9349 6.85879C21.8515 5.17598 21.4488 3.68535 20.1573 2.45723C18.8706 1.2291 17.309 0.844727 15.5461 0.760352C13.7291 0.661914 8.28315 0.661914 6.46618 0.760352C4.70815 0.840039 3.14654 1.22441 1.85502 2.45254C0.563505 3.68066 0.165737 5.17129 0.0773437 6.8541C-0.0257812 8.58848 -0.0257812 13.7869 0.0773437 15.5213C0.160826 17.2041 0.563505 18.6947 1.85502 19.9229C3.14654 21.151 4.70324 21.5354 6.46618 21.6197C8.28315 21.7182 13.7291 21.7182 15.5461 21.6197C17.309 21.54 18.8706 21.1557 20.1573 19.9229C21.4439 18.6947 21.8465 17.2041 21.9349 15.5213C22.0381 13.7869 22.0381 8.59316 21.9349 6.85879ZM19.5876 17.3822C19.2046 18.301 18.4631 19.0088 17.4956 19.3791C16.047 19.9275 12.6095 19.801 11.0086 19.801C9.4077 19.801 5.96529 19.9229 4.52154 19.3791C3.55904 19.0135 2.81752 18.3057 2.42958 17.3822C1.85502 15.9994 1.98761 12.7182 1.98761 11.19C1.98761 9.66191 1.85993 6.37598 2.42958 4.99785C2.81261 4.0791 3.55413 3.37129 4.52154 3.00098C5.9702 2.45254 9.4077 2.5791 11.0086 2.5791C12.6095 2.5791 16.0519 2.45723 17.4956 3.00098C18.4581 3.3666 19.1997 4.07441 19.5876 4.99785C20.1622 6.38066 20.0296 9.66191 20.0296 11.19C20.0296 12.7182 20.1622 16.0041 19.5876 17.3822Z" fill="white"/>
</svg>
