<svg width="22" height="21" viewBox="0 0 22 21" fill="none" xmlns="http://www.w3.org/2000/svg">
<path d="M19.7386 5.54437C19.7525 5.75756 19.7525 5.97079 19.7525 6.18398C19.7525 12.6865 15.2157 20.1789 6.92386 20.1789C4.36928 20.1789 1.9962 19.3717 0 17.9708C0.362957 18.0164 0.711906 18.0317 1.08883 18.0317C3.19666 18.0317 5.13704 17.2551 6.68654 15.9302C4.7043 15.8845 3.04313 14.4682 2.47079 12.519C2.75 12.5646 3.02917 12.5951 3.32234 12.5951C3.72715 12.5951 4.132 12.5342 4.50888 12.4276C2.4429 11.9707 0.893363 9.99107 0.893363 7.60021V7.53932C1.49359 7.9048 2.19162 8.13323 2.93141 8.16365C1.71695 7.28038 0.921293 5.77279 0.921293 4.0672C0.921293 3.15351 1.1446 2.31595 1.53549 1.58498C3.75504 4.56974 7.09135 6.51895 10.8324 6.73218C10.7626 6.3667 10.7207 5.98602 10.7207 5.6053C10.7207 2.89462 12.7309 0.686523 15.2296 0.686523C16.5278 0.686523 17.7004 1.28043 18.524 2.23982C19.543 2.02663 20.5202 1.61545 21.3857 1.05201C21.0506 2.19416 20.3387 3.15355 19.4035 3.76265C20.3109 3.6561 21.1903 3.38193 21.9999 3.00126C21.3858 3.97584 20.618 4.84382 19.7386 5.54437Z" fill="white"/>
</svg>
