<svg width="21" height="19" viewBox="0 0 21 19" fill="none" xmlns="http://www.w3.org/2000/svg">
<path d="M20.4234 3.50291C20.1835 2.39432 19.4767 1.52123 18.5792 1.22493C16.9525 0.686523 10.4296 0.686523 10.4296 0.686523C10.4296 0.686523 3.90679 0.686523 2.28006 1.22493C1.3826 1.52127 0.675774 2.39432 0.435875 3.50291C0 5.5123 0 9.70471 0 9.70471C0 9.70471 0 13.8971 0.435875 15.9065C0.675774 17.0151 1.3826 17.8518 2.28006 18.1481C3.90679 18.6865 10.4296 18.6865 10.4296 18.6865C10.4296 18.6865 16.9525 18.6865 18.5792 18.1481C19.4767 17.8518 20.1835 17.0151 20.4234 15.9065C20.8593 13.8971 20.8593 9.70471 20.8593 9.70471C20.8593 9.70471 20.8593 5.5123 20.4234 3.50291ZM8.29629 13.5111V5.89832L13.7481 9.70481L8.29629 13.5111Z" fill="white"/>
</svg>
